<?xml version="1.0" standalone="no"?>
<!DOCTYPE svg PUBLIC "-//W3C//DTD SVG 20010904//EN"
 "http://www.w3.org/TR/2001/REC-SVG-20010904/DTD/svg10.dtd">
<svg version="1.0" xmlns="http://www.w3.org/2000/svg"
 width="120.000000pt" height="120.000000pt" viewBox="0 0 120.000000 120.000000"
 preserveAspectRatio="xMidYMid meet">
<metadata>
Created by potrace 1.11, written by Peter Selinger 2001-2013
</metadata>
<g transform="translate(0.000000,120.000000) scale(0.100000,-0.100000)"
fill="#000000" stroke="none">
<path d="M219 1015 c-25 -8 -67 -33 -92 -55 -128 -113 -137 -303 -20 -424 37
-38 119 -86 148 -86 9 0 15 -9 15 -25 0 -87 87 -207 185 -255 75 -37 189 -35
267 3 68 33 143 112 160 169 6 22 17 41 22 43 134 38 182 66 231 133 47 65 64
122 61 207 -6 153 -127 283 -283 301 -103 12 -243 -50 -293 -131 -24 -39 -36
-44 -44 -17 -9 27 -74 90 -124 119 -55 32 -162 41 -233 18z"/>
</g>
</svg>
